<svg width="37" height="41" viewBox="0 0 37 41" fill="none" xmlns="http://www.w3.org/2000/svg">
<path fill-rule="evenodd" clip-rule="evenodd" d="M18.1938 7.10889C19.0312 7.10889 19.71 7.85376 19.71 8.7726V32.0646C19.71 32.9835 19.0312 33.7283 18.1938 33.7283C17.3565 33.7283 16.6777 32.9835 16.6777 32.0646V8.7726C16.6777 7.85376 17.3565 7.10889 18.1938 7.10889ZM25.7746 13.7637C26.6119 13.7637 27.2907 14.5086 27.2907 15.4275V32.0646C27.2907 32.9835 26.6119 33.7283 25.7746 33.7283C24.9372 33.7283 24.2584 32.9835 24.2584 32.0646V15.4275C24.2584 14.5086 24.9372 13.7637 25.7746 13.7637ZM10.6131 20.4186C11.4504 20.4186 12.1292 21.1635 12.1292 22.0823V32.0646C12.1292 32.9835 11.4504 33.7283 10.6131 33.7283C9.77573 33.7283 9.09692 32.9835 9.09692 32.0646V22.0823C9.09692 21.1635 9.77573 20.4186 10.6131 20.4186Z" fill="#898787"/>
</svg>
