<svg width="33" height="32" viewBox="0 0 33 32" fill="none" xmlns="http://www.w3.org/2000/svg">
<path fill-rule="evenodd" clip-rule="evenodd" d="M0.761383 3.52114C0.761383 1.77872 2.16272 0.366211 3.89136 0.366211H19.5412C21.2699 0.366211 22.6712 1.77872 22.6712 3.52114V9.831H28.9312C30.6598 9.831 32.0611 11.2435 32.0611 12.9859V28.7606C32.0611 30.503 30.6598 31.9155 28.9312 31.9155H13.2813C11.5526 31.9155 10.1513 30.503 10.1513 28.7606V22.4507H3.89136C2.16272 22.4507 0.761383 21.0382 0.761383 19.2958V3.52114ZM13.2813 22.4507V28.7606H28.9312V12.9859H22.6712V19.2958C22.6712 21.0382 21.2699 22.4507 19.5412 22.4507H13.2813ZM19.5412 19.2958H3.89136V3.52114L19.5412 3.52114V19.2958Z" fill="#626262"/>
</svg>
