<svg width="145" height="33" viewBox="0 0 145 33" fill="none" xmlns="http://www.w3.org/2000/svg" class="copper-logo"><path d="M23.8596 25.2255C22.5854 25.2255 21.6536 25.0007 21.0744 24.5537C20.4952 24.1066 20.1855 23.4042 20.1477 22.4488C20.1301 22.0171 20.1754 21.4142 20.3063 20.6453L23.0236 4.58018C23.2905 3.00662 23.8093 1.84944 24.5547 1.1112C25.3001 0.372954 26.4937 0 28.1357 0H38.579C39.9162 0 40.8681 0.224794 41.4322 0.671828C41.9963 1.11886 42.2984 1.82134 42.3362 2.77672C42.3538 3.20843 42.3085 3.81384 42.1776 4.58018L39.4604 20.6453C39.1959 22.2163 38.6746 23.3761 37.9318 24.1143C37.1863 24.8525 35.9725 25.2255 34.3029 25.2255H23.8596ZM35.4664 6.3862C35.5167 6.07711 35.5394 5.89319 35.5369 5.83188C35.5192 5.33887 35.0937 5.09108 34.2777 5.09108H30.4902C30.0067 5.09108 29.6643 5.17538 29.4729 5.34653C29.2815 5.51513 29.1682 5.86509 29.08 6.3862L26.9873 18.8878C26.9672 19.013 26.942 19.1203 26.9319 19.2123C26.9193 19.3042 26.9168 19.3987 26.9193 19.4907C26.937 19.9224 27.2794 20.1395 27.9493 20.1395H31.7343C32.2807 20.1395 32.6736 20.0476 32.9103 19.8611C33.147 19.6772 33.2981 19.3527 33.3737 18.8904L35.4664 6.3862Z" fill="#190134"></path><path d="M4.47025 25.2719C2.92151 25.2719 1.80088 24.9935 1.11087 24.4391C0.420867 23.8848 0.0531986 23.0214 0.00786961 21.8489C-0.00472177 21.5398 -0.00220349 21.2256 0.0154244 20.9012C0.0330524 20.5768 0.0884544 20.2166 0.156448 19.8155L2.54126 5.71223C2.85352 3.86023 3.48813 2.49103 4.40982 1.59696C5.33151 0.702894 6.76692 0.255859 8.71355 0.255859H20.212L19.3734 5.34439H11.2923C10.5645 5.34439 10.0734 5.45934 9.82411 5.69179C9.5748 5.9217 9.38593 6.39428 9.26254 7.10187L7.27561 18.4719C7.25043 18.6251 7.2328 18.758 7.22273 18.8653C7.21266 18.9725 7.20762 19.09 7.21266 19.2127C7.22525 19.5524 7.34109 19.8002 7.56018 19.9535C7.77927 20.1067 8.17716 20.1859 8.75636 20.1859H16.9256L16.0594 25.2744H4.47025V25.2719Z" fill="#190134"></path><path d="M95.1695 25.4814C93.8625 25.4814 92.9182 25.2566 92.339 24.8095C91.7598 24.3625 91.45 23.66 91.4148 22.7046C91.3971 22.2729 91.4425 21.6701 91.5734 20.9012L94.2906 4.83604C94.5576 3.26248 95.0738 2.1053 95.8218 1.36706C96.5672 0.626259 97.7759 0.255859 99.4481 0.255859H110.234C111.39 0.255859 112.226 0.480654 112.745 0.927688C113.263 1.37472 113.54 2.04655 113.576 2.94062C113.596 3.49494 113.558 4.06715 113.46 4.65212L112.818 8.44553L112.266 11.728C112.168 12.313 112.014 12.8852 111.805 13.4395C111.47 14.3336 110.967 15.0054 110.297 15.4525C109.627 15.8995 108.713 16.1243 107.559 16.1243H104.286H98.6548L98.1562 19.0058C98.131 19.1565 98.1134 19.2893 98.1033 19.3991C98.0932 19.5064 98.0882 19.6061 98.0932 19.698C98.1033 19.9765 98.1889 20.1604 98.3426 20.2523C98.4962 20.3443 98.7732 20.3903 99.1685 20.3903H110.375L109.526 25.4788H95.1695V25.4814ZM105.142 11.0358C105.507 11.0358 105.777 10.9898 105.948 10.8978C106.119 10.8059 106.252 10.6347 106.343 10.3895C106.436 10.1417 106.497 9.94245 106.524 9.78918L107.063 6.59864C107.089 6.44537 107.094 6.24356 107.086 5.99833C107.076 5.7531 107 5.58195 106.859 5.48999C106.718 5.39803 106.467 5.35205 106.101 5.35205H101.742C101.226 5.35205 100.878 5.43635 100.705 5.6075C100.528 5.77609 100.38 6.1235 100.289 6.64717L99.5312 11.0409H105.142V11.0358Z" fill="#190134"></path><path d="M121.357 1.91627C120.436 2.81034 119.801 4.17954 119.489 6.03154L124.175 7.10187C124.299 6.39428 124.488 5.9217 124.737 5.69179C124.986 5.45934 125.477 5.34439 126.205 5.34439H134.161L135 0.255859H123.626C121.68 0.255859 122.279 1.0222 121.357 1.91627Z" fill="#190134"></path><path d="M114.705 25.4175L118.958 0.255859H125.342C123.919 8.58091 123.66 10.1775 122.018 19.836L121.978 20.0786L121.885 20.6253L121.789 21.1898L121.691 21.7723L121.588 22.3726C121.041 25.5835 121.633 22.2065 121.086 25.4175H114.705Z" fill="#190134"></path><path d="M62.0756 0.258383C63.6244 0.258383 64.745 0.536819 65.435 1.09114C66.125 1.64547 66.4927 2.50888 66.538 3.68139C66.5506 3.99048 66.5481 4.30468 66.5305 4.6291C66.5128 4.95352 66.4574 5.3137 66.3895 5.71475L64.0046 19.818C63.6924 21.67 63.0578 23.0392 62.1361 23.9333C61.2144 24.8274 59.779 25.2744 57.8323 25.2744H46.3339L47.1725 20.1859H55.2536C55.9814 20.1859 56.4725 20.0709 56.7218 19.8385C56.9711 19.6086 57.16 19.136 57.2834 18.4284L59.2703 7.05841C59.2955 6.90514 59.3131 6.77231 59.3232 6.66502C59.3332 6.55773 59.3383 6.44022 59.3332 6.31761C59.3207 5.97786 59.2048 5.73008 58.9857 5.57681C58.7666 5.42354 58.3687 5.34435 57.7895 5.34435H49.6203L50.4865 0.255827H62.0756V0.258383Z" fill="#190134"></path><path d="M47.6913 0.255859L42.3047 32.0004H48.686L54.0751 0.255859H47.6913Z" fill="#190134"></path><path d="M85.9995 0.258383C87.5482 0.258383 88.6688 0.536819 89.3589 1.09114C90.0489 1.64547 90.4165 2.50888 90.4619 3.68139C90.4744 3.99048 90.4719 4.30468 90.4543 4.6291C90.4367 4.95352 90.3813 5.3137 90.3133 5.71475L87.9285 19.818C87.6162 21.67 86.9816 23.0392 86.0599 23.9333C85.1382 24.8274 83.7028 25.2744 81.7562 25.2744H70.2577L71.0963 20.1859H79.1775C79.9052 20.1859 80.3963 20.0709 80.6456 19.8385C80.8949 19.6086 81.0838 19.136 81.2072 18.4284L83.1941 7.05841C83.2193 6.90514 83.2369 6.77231 83.247 6.66502C83.2571 6.55773 83.2621 6.44022 83.2571 6.31761C83.2445 5.97786 83.1286 5.73008 82.9096 5.57681C82.6905 5.42354 82.2926 5.34435 81.7134 5.34435H73.5441L74.4104 0.255827H85.9995V0.258383Z" fill="#190134"></path><path d="M66.2285 32.0004L71.6151 0.255859H77.9989C76.5761 8.58091 76.3167 10.1775 74.6748 19.836L74.6345 20.0786L74.5413 20.6253L74.4456 21.1898L74.3474 21.7723L74.2442 22.3726C73.6977 25.5835 73.1563 28.7894 72.6098 32.0004H66.2285Z" fill="#190134"></path><g clip-path="url(#clip0)"><path d="M142.503 33C141.772 33 141.087 32.6821 140.615 32.136C139.5 32.7015 138.257 33 137.001 33C132.59 33 129 29.4105 129 25.0009C129 20.5913 132.59 17 137.001 17C141.41 17 144.998 20.6 145 25.0237L144.831 25.0255L145 25.0237V25.0255V30.5028C145 31.8796 143.88 33 142.503 33ZM140.826 31.2228L141.005 31.4932C141.338 31.9973 141.899 32.2976 142.501 32.2976C143.491 32.2976 144.296 31.4915 144.296 30.5028V25.0272C144.296 20.9881 141.022 17.7042 136.999 17.7042C132.976 17.7024 129.702 20.9759 129.702 25.0009C129.702 29.0259 132.976 32.2993 137.001 32.2993C138.239 32.2993 139.465 31.9815 140.543 31.3809L140.826 31.2228Z" fill="#190134"></path><path fill-rule="evenodd" clip-rule="evenodd" d="M136.686 31.175C140.095 31.3067 142.966 28.6444 143.094 25.2305C143.107 24.9355 143.098 24.6492 143.068 24.363C143.08 24.7089 142.987 25.0724 142.773 25.3323C142.29 25.9171 141.459 25.7766 141.322 25.1743C141.25 24.8459 141.391 24.4473 141.672 24.2594C140.114 24.0117 139.672 25.515 138.857 26.314C137.979 27.178 136.618 26.8654 136.386 25.8399C136.258 25.2709 136.497 24.579 136.98 24.2418C136.168 24.0539 135.55 24.2927 134.979 24.8652C134.437 25.4043 134.049 26.1208 133.392 26.5054C132.774 26.8725 131.915 26.9076 131.365 26.3895C130.96 26.0085 130.768 25.3973 130.751 24.7528C130.621 28.1702 133.278 31.0415 136.686 31.175Z" fill="url(#paint0_linear)"></path><path fill-rule="evenodd" clip-rule="evenodd" d="M136.367 22.4102C139.489 22.3892 139.059 18.5731 136.328 18.833C133.299 19.1228 130.872 21.6235 130.752 24.7564C130.77 25.4009 130.961 26.012 131.367 26.3931C131.917 26.9094 132.775 26.876 133.394 26.509C133.662 26.3545 133.884 26.142 134.089 25.9102C133.495 26.6021 132.588 26.2684 132.537 25.3798C132.489 24.5123 132.967 23.636 133.655 23.1232C134.4 22.563 135.373 22.4137 136.367 22.4102Z" fill="url(#paint1_linear)"></path><path fill-rule="evenodd" clip-rule="evenodd" d="M140.309 20.368C140.885 20.3891 141.333 20.872 141.308 21.4498C141.287 22.0223 140.804 22.4719 140.234 22.449C139.658 22.4227 139.213 21.9398 139.236 21.3673C139.256 20.7895 139.737 20.3452 140.309 20.368Z" fill="url(#paint2_linear)"></path><path fill-rule="evenodd" clip-rule="evenodd" d="M141.862 22.3451C142.202 22.3574 142.468 22.6437 142.455 22.9861C142.443 23.3286 142.151 23.5972 141.811 23.585C141.47 23.5674 141.205 23.2811 141.217 22.9387C141.231 22.598 141.521 22.3328 141.862 22.3451Z" fill="url(#paint3_linear)"></path></g><defs><linearGradient id="paint0_linear" x1="137.653" y1="21.902" x2="135.768" y2="30.4885" gradientUnits="userSpaceOnUse"><stop stop-color="#521C89"></stop><stop offset="0.5164" stop-color="#8D1AF1"></stop><stop offset="1" stop-color="#FFA5F6"></stop></linearGradient><linearGradient id="paint1_linear" x1="133.748" y1="26.3503" x2="135.109" y2="20.5911" gradientUnits="userSpaceOnUse"><stop stop-color="#1837D8"></stop><stop offset="0.5074" stop-color="#00C1FF"></stop><stop offset="1" stop-color="#70E6FF"></stop></linearGradient><linearGradient id="paint2_linear" x1="138.819" y1="27.5491" x2="140.18" y2="21.7899" gradientUnits="userSpaceOnUse"><stop stop-color="#1837D8"></stop><stop offset="0.5074" stop-color="#00C1FF"></stop><stop offset="1" stop-color="#70E6FF"></stop></linearGradient><linearGradient id="paint3_linear" x1="140.65" y1="27.9816" x2="142.012" y2="22.2224" gradientUnits="userSpaceOnUse"><stop stop-color="#1837D8"></stop><stop offset="0.5074" stop-color="#00C1FF"></stop><stop offset="1" stop-color="#70E6FF"></stop></linearGradient><clipPath id="clip0"><rect width="16" height="16" fill="white" transform="translate(129 17)"></rect></clipPath></defs></svg>