<svg width="24" height="24" viewBox="0 0 24 24" fill="none" xmlns="http://www.w3.org/2000/svg">
<path d="M20.0958 5.55691C18.1566 3.99851 15.0902 3.73451 14.9606 3.72331C14.7558 3.70571 14.5614 3.82171 14.4774 4.00891C14.4742 4.01531 14.303 4.51211 14.1374 4.99131C16.391 5.38571 17.9222 6.26091 18.0038 6.30891C18.3862 6.53131 18.5142 7.02171 18.291 7.40331C18.143 7.65771 17.875 7.80011 17.5998 7.80011C17.463 7.80011 17.3254 7.76571 17.199 7.69211C17.1766 7.67851 14.9302 6.40011 12.0014 6.40011C9.0718 6.40011 6.8246 7.67931 6.8022 7.69211C6.4206 7.91371 5.931 7.78331 5.7094 7.40091C5.4878 7.02011 5.6166 6.53131 5.9974 6.30891C6.079 6.26091 7.6158 5.38251 9.8758 4.98891C9.7014 4.50411 9.5254 4.01531 9.5222 4.00891C9.4382 3.82091 9.2438 3.70251 9.039 3.72331C8.9094 3.73371 5.843 3.99771 3.8782 5.57771C2.851 6.52651 0.799805 12.0737 0.799805 16.8697C0.799805 16.9545 0.821405 17.0369 0.863805 17.1105C2.2806 19.5985 6.143 20.2497 7.023 20.2777C7.0286 20.2785 7.0334 20.2785 7.0382 20.2785C7.1934 20.2785 7.3398 20.2041 7.4318 20.0785L8.3838 18.7889C6.2958 18.2857 5.1918 17.4945 5.1254 17.4457C4.7702 17.1841 4.6934 16.6833 4.955 16.3273C5.2158 15.9729 5.715 15.8945 6.0702 16.1545C6.0998 16.1737 8.1374 17.6001 11.9998 17.6001C15.8774 17.6001 17.9094 16.1681 17.9294 16.1537C18.2846 15.8961 18.7854 15.9737 19.0454 16.3305C19.3046 16.6857 19.2294 17.1833 18.8758 17.4441C18.8094 17.4929 17.711 18.2825 15.6278 18.7857L16.5678 20.0777C16.6598 20.2041 16.8062 20.2777 16.9614 20.2777C16.967 20.2777 16.9718 20.2777 16.9766 20.2769C17.8574 20.2489 21.7198 19.5977 23.1358 17.1097C23.1782 17.0361 23.1998 16.9537 23.1998 16.8689C23.1998 12.0737 21.1486 6.52651 20.0958 5.55691ZM8.7998 15.2001C7.9158 15.2001 7.1998 14.3049 7.1998 13.2001C7.1998 12.0953 7.9158 11.2001 8.7998 11.2001C9.6838 11.2001 10.3998 12.0953 10.3998 13.2001C10.3998 14.3049 9.6838 15.2001 8.7998 15.2001ZM15.1998 15.2001C14.3158 15.2001 13.5998 14.3049 13.5998 13.2001C13.5998 12.0953 14.3158 11.2001 15.1998 11.2001C16.0838 11.2001 16.7998 12.0953 16.7998 13.2001C16.7998 14.3049 16.0838 15.2001 15.1998 15.2001Z" fill="#687F87"/>
</svg>
