<svg width="149" height="149" viewBox="0 0 149 149" fill="none" xmlns="http://www.w3.org/2000/svg">
<rect width="135" height="135" transform="translate(0 14.1113) rotate(-6)" fill="#5869EA"/>
<g clip-path="url(#clip0_337_1208)">
<path d="M85.124 49.1669C81.6382 46.9216 76.5095 47.0182 76.2928 47.0223C75.9502 47.0288 75.6482 47.2549 75.5416 47.5798C75.5374 47.591 75.3402 48.4443 75.1492 49.2674C78.9533 49.5285 81.6438 50.7125 81.7874 50.7778C82.46 51.0798 82.7576 51.8704 82.4541 52.5418C82.2531 52.9892 81.8337 53.272 81.3776 53.3199C81.1508 53.3437 80.9167 53.3107 80.6944 53.2107C80.6549 53.1921 76.7087 51.4644 71.8541 51.9747C66.9982 52.4851 63.4962 54.9969 63.4613 55.022C62.8674 55.4558 62.0332 55.3249 61.5993 54.7297C61.1656 54.1371 61.2939 53.3045 61.8864 52.8695C62.0133 52.7757 64.4075 51.052 68.085 50.0059C67.7115 49.2327 67.3346 48.4531 67.3282 48.4431C67.1562 48.1461 66.8133 47.9837 66.4775 48.0539C66.2645 48.0937 61.2278 49.0655 58.2463 52.0267C56.709 53.7783 54.2755 63.3304 55.111 71.2799C55.1258 71.4205 55.1759 71.5533 55.259 71.6679C58.0409 75.545 64.5564 75.9515 66.0199 75.8446C66.0293 75.845 66.0373 75.8441 66.0452 75.8433C66.3025 75.8163 66.5322 75.6674 66.6628 75.4432L68.0161 73.1398C64.4675 72.6695 62.4998 71.5504 62.3812 71.4811C61.7469 71.1093 61.5323 70.2926 61.9039 69.657C62.2745 69.0241 63.0882 68.8072 63.7223 69.1763C63.7747 69.2029 67.4006 71.2123 73.8027 70.5394C80.2299 69.8638 83.3486 67.1362 83.3792 67.1089C83.9231 66.62 84.7667 66.6614 85.2598 67.2075C85.7513 67.7511 85.7134 68.589 85.1727 69.0829C85.0711 69.1754 83.3881 70.6755 80.0228 71.8725L81.8059 73.8503C81.9804 74.0438 82.2359 74.1402 82.4932 74.1132C82.5025 74.1122 82.5104 74.1114 82.5182 74.1092C83.9733 73.9094 90.2619 72.1571 92.1756 67.7865C92.233 67.6571 92.2545 67.5167 92.2397 67.3762C91.4043 59.428 87.038 50.5906 85.124 49.1669ZM68.0804 67.1188C66.6152 67.2728 65.2724 65.9137 65.0799 64.0824C64.8875 62.2512 65.9183 60.6426 67.3836 60.4886C68.8488 60.3346 70.1916 61.6937 70.3841 63.525C70.5765 65.3562 69.5457 66.9648 68.0804 67.1188ZM78.6887 66.0038C77.2234 66.1578 75.8807 64.7987 75.6882 62.9675C75.4957 61.1362 76.5265 59.5277 77.9918 59.3737C79.4571 59.2196 80.7998 60.5787 80.9923 62.41C81.1848 64.2412 80.1539 65.8498 78.6887 66.0038Z" fill="white"/>
</g>
<path d="M49.9698 107.902L48.7824 96.6041L52.2513 96.2395C53.9274 96.0633 55.3898 96.4566 56.6387 97.4193C57.8875 98.3821 58.596 99.6643 58.7644 101.266C58.9328 102.868 58.5063 104.27 57.4849 105.471C56.4636 106.672 55.1148 107.361 53.4387 107.537L49.9698 107.902ZM51.6493 105.972L53.2564 105.803C54.4446 105.678 55.3709 105.205 56.0354 104.385C56.7106 103.563 56.989 102.59 56.8708 101.465C56.7527 100.341 56.2779 99.4468 55.4467 98.7834C54.6261 98.1189 53.6217 97.849 52.4336 97.9739L50.8264 98.1428L51.6493 105.972ZM60.9634 96.9487C60.6452 96.9821 60.3576 96.8997 60.1008 96.7015C59.8429 96.4926 59.6967 96.2238 59.6621 95.8949C59.6287 95.5767 59.7169 95.2939 59.9269 95.0466C60.1358 94.7887 60.3993 94.643 60.7176 94.6096C61.0464 94.575 61.3345 94.6627 61.5818 94.8727C61.828 95.072 61.9678 95.3308 62.0012 95.6491C62.0358 95.9779 61.954 96.2708 61.7557 96.5276C61.5564 96.7737 61.2923 96.9141 60.9634 96.9487ZM61.1067 106.731L60.2705 98.7751L62.0209 98.5911L62.8571 106.547L61.1067 106.731ZM68.0264 106.165C67.0823 106.264 66.2622 106.114 65.566 105.716C64.8805 105.316 64.4752 104.726 64.3503 103.945L66.1643 103.754C66.3741 104.526 66.9617 104.861 67.927 104.76C68.3195 104.718 68.6252 104.616 68.8441 104.454C69.0619 104.281 69.1563 104.057 69.1273 103.781C69.0983 103.505 68.9853 103.297 68.7882 103.157C68.5911 103.017 68.2749 102.916 67.8394 102.854L66.4978 102.641C65.102 102.423 64.3389 101.694 64.2084 100.453C64.1382 99.7844 64.3524 99.2202 64.8511 98.7602C65.3486 98.2897 66.0429 98.0075 66.934 97.9139C67.7933 97.8236 68.5216 97.9669 69.1189 98.3438C69.7163 98.7208 70.0847 99.2666 70.2241 99.9813L68.4738 100.165C68.2349 99.5254 67.7654 99.2422 67.0653 99.3158C66.7152 99.3526 66.4419 99.4564 66.2453 99.6272C66.0477 99.7875 65.9622 99.9949 65.989 100.249C66.0369 100.706 66.4257 100.987 67.1554 101.092L68.5289 101.302C69.9777 101.514 70.7673 102.241 70.8977 103.482C70.9769 104.235 70.7465 104.849 70.2065 105.324C69.6761 105.788 68.9494 106.068 68.0264 106.165ZM76.5141 105.273C75.3153 105.399 74.2764 105.106 73.3971 104.394C72.5274 103.67 72.0317 102.73 71.9102 101.574C71.7887 100.417 72.0786 99.4003 72.78 98.5221C73.4909 97.6323 74.4457 97.1244 75.6444 96.9984C76.6734 96.8902 77.5787 97.0847 78.3602 97.5817C79.1524 98.0776 79.702 98.7653 80.0089 99.6447L78.1631 99.8387C77.9571 99.4098 77.644 99.0835 77.2236 98.8595C76.8127 98.6238 76.3421 98.5339 75.8116 98.5896C75.1115 98.6632 74.5637 98.9621 74.1684 99.4863C73.773 100.01 73.6143 100.644 73.6924 101.386C73.7704 102.129 74.0573 102.716 74.553 103.146C75.0488 103.577 75.6467 103.755 76.3468 103.682C76.8772 103.626 77.3195 103.445 77.6735 103.14C78.037 102.823 78.2749 102.433 78.3872 101.971L80.233 101.777C80.1156 102.701 79.7211 103.488 79.0493 104.138C78.3881 104.786 77.5431 105.165 76.5141 105.273ZM88.6409 102.792C87.9289 103.671 86.9842 104.172 85.8066 104.296C84.6291 104.42 83.5954 104.126 82.7056 103.415C81.8252 102.693 81.3243 101.753 81.2028 100.597C81.0812 99.4408 81.3765 98.423 82.0885 97.5438C82.8099 96.6528 83.7594 96.1454 84.937 96.0217C86.1145 95.8979 87.1434 96.1973 88.0238 96.9199C88.9136 97.6308 89.4193 98.5644 89.5408 99.7207C89.6624 100.877 89.3624 101.901 88.6409 102.792ZM85.636 102.673C86.3256 102.601 86.868 102.302 87.2634 101.778C87.6683 101.242 87.8334 100.619 87.7587 99.908C87.6839 99.1973 87.3934 98.6272 86.8871 98.1978C86.3903 97.7566 85.7971 97.5723 85.1076 97.6447C84.4074 97.7183 83.8549 98.0231 83.45 98.559C83.0547 99.0832 82.8943 99.7007 82.969 100.411C83.0437 101.122 83.3295 101.698 83.8263 102.139C84.3327 102.569 84.9359 102.747 85.636 102.673ZM91.7194 103.514L90.8831 95.5576L92.6335 95.3736L92.7824 96.7898C92.884 96.3287 93.1166 95.9396 93.4802 95.6225C93.8543 95.3043 94.2694 95.1212 94.7256 95.0733C95.0014 95.0443 95.2317 95.0416 95.4165 95.065L95.6055 96.8631C95.3409 96.7944 95.0441 96.7773 94.7153 96.8119C94.1848 96.8677 93.7568 97.1325 93.4313 97.6065C93.1046 98.0698 92.9814 98.6834 93.0617 99.4472L93.4697 103.33L91.7194 103.514ZM100.779 102.722C99.6968 102.836 98.7421 102.529 97.9148 101.801C97.0981 101.072 96.6295 100.134 96.5091 98.9883C96.3887 97.8426 96.6521 96.8282 97.2993 95.9451C97.9571 95.0608 98.8271 94.5618 99.9091 94.448C100.45 94.3912 100.962 94.4608 101.443 94.6568C101.924 94.8423 102.304 95.0919 102.584 95.4057L102.054 90.3615L103.804 90.1775L105.058 102.112L103.308 102.296L103.196 101.23C102.988 101.595 102.668 101.923 102.238 102.215C101.806 102.497 101.32 102.666 100.779 102.722ZM99.1502 100.545C99.6471 100.986 100.24 101.17 100.93 101.098C101.619 101.025 102.161 100.722 102.555 100.187C102.95 99.6521 103.109 99.024 103.033 98.3026C102.957 97.5813 102.671 97 102.174 96.5589C101.677 96.1177 101.084 95.9334 100.395 96.0058C99.7051 96.0783 99.1632 96.3819 98.7689 96.9168C98.3747 97.4516 98.2154 98.0796 98.2913 98.801C98.3671 99.5224 98.6534 100.104 99.1502 100.545Z" fill="white"/>
<defs>
<clipPath id="clip0_337_1208">
<rect width="40" height="40" fill="white" transform="translate(50.8457 43.4573) rotate(-6)"/>
</clipPath>
</defs>
</svg>
