<svg width="48" height="48" viewBox="0 0 48 48" fill="none" xmlns="http://www.w3.org/2000/svg">
<path d="M30 24C30 27.3137 27.3137 30 24 30C20.6863 30 18 27.3137 18 24C18 20.6863 20.6863 18 24 18C27.3137 18 30 20.6863 30 24Z" fill="#999999"/>
<path fill-rule="evenodd" clip-rule="evenodd" d="M43.7889 23.1056C39.4724 14.4727 31.8063 10 24 10C16.1937 10 8.52758 14.4727 4.21115 23.1056C3.92962 23.6686 3.92962 24.3314 4.21115 24.8944C8.52758 33.5273 16.1937 38 24 38C31.8063 38 39.4724 33.5273 43.7889 24.8944C44.0704 24.3314 44.0704 23.6686 43.7889 23.1056ZM24 34C18.0624 34 11.9961 30.7584 8.25932 24C11.9961 17.2416 18.0624 14 24 14C29.9376 14 36.0039 17.2416 39.7407 24C36.0039 30.7584 29.9376 34 24 34Z" fill="#999999"/>
</svg>
