<svg width="48" height="48" viewBox="0 0 48 48" fill="none" xmlns="http://www.w3.org/2000/svg">
<path fill-rule="evenodd" clip-rule="evenodd" d="M9.41421 6.58579C8.63317 5.80474 7.36684 5.80474 6.58579 6.58579C5.80474 7.36683 5.80474 8.63317 6.58579 9.41421L11.4341 14.2625C8.57279 16.4147 6.0785 19.3709 4.21115 23.1056C3.92962 23.6686 3.92962 24.3314 4.21115 24.8944C8.52758 33.5273 16.1937 38 24 38C27.1103 38 30.1984 37.29 33.0612 35.8896L38.5858 41.4142C39.3668 42.1953 40.6332 42.1953 41.4142 41.4142C42.1953 40.6332 42.1953 39.3668 41.4142 38.5858L9.41421 6.58579ZM30.0275 32.856L26.5868 29.4153C25.8036 29.7901 24.9263 30 24 30C20.6863 30 18 27.3137 18 24C18 23.0737 18.2099 22.1964 18.5847 21.4132L14.2968 17.1252C11.9756 18.7588 9.89442 21.0427 8.25932 24C11.9961 30.7584 18.0624 34 24 34C26.0268 34 28.0685 33.6223 30.0275 32.856Z" fill="#999999"/>
<path d="M37.1046 27.791C38.0706 26.6803 38.9569 25.4175 39.7406 24C36.0038 17.2416 29.9375 14 23.9999 14C23.7759 14 23.5517 14.0046 23.3275 14.0139L19.7588 10.4452C21.1548 10.149 22.575 10 23.9999 10C31.8062 10 39.4723 14.4727 43.7888 23.1056C44.0703 23.6686 44.0703 24.3314 43.7888 24.8944C42.7008 27.0703 41.4001 28.982 39.9379 30.6243L37.1046 27.791Z" fill="#999999"/>
</svg>
