<svg width="12" height="15" viewBox="0 0 12 15" fill="none" xmlns="http://www.w3.org/2000/svg">
<path fill-rule="evenodd" clip-rule="evenodd" d="M5.99996 1.83335C4.90148 1.83335 3.99996 2.79122 3.99996 3.95835V6.08335H9.99996C10.7363 6.08335 11.3333 6.71762 11.3333 7.50002V13.1667C11.3333 13.9491 10.7363 14.5834 9.99996 14.5834H1.99996C1.26358 14.5834 0.666626 13.9491 0.666626 13.1667V7.50002C0.666626 6.71762 1.26358 6.08335 1.99996 6.08335H2.66663V3.95835C2.66663 2.00882 4.1651 0.416687 5.99996 0.416687C7.83482 0.416687 9.33329 2.00882 9.33329 3.95835C9.33329 4.34956 9.03482 4.66669 8.66663 4.66669C8.29844 4.66669 7.99996 4.34956 7.99996 3.95835C7.99996 2.79122 7.09844 1.83335 5.99996 1.83335ZM1.99996 7.50002V13.1667H9.99996V7.50002H1.99996Z" fill="#D8624B"/>
</svg>
