<svg width="34" height="10" viewBox="0 0 34 10" fill="none" xmlns="http://www.w3.org/2000/svg">
<path d="M17.0436 1.00003C14.8346 0.975963 13.0243 2.74721 13.0003 4.95622C12.9762 7.16523 14.7474 8.97549 16.9565 8.99955C19.1655 9.02361 20.9757 7.25237 20.9998 5.04336C21.0238 2.83435 19.2526 1.02409 17.0436 1.00003Z" fill="#999999"/>
<path d="M29.0429 1.13073C26.8339 1.10667 25.0236 2.87792 24.9995 5.08693C24.9755 7.29594 26.7467 9.1062 28.9557 9.13026C31.1648 9.15432 32.975 7.38307 32.9991 5.17406C33.0231 2.96506 31.2519 1.1548 29.0429 1.13073Z" fill="#999999"/>
<path d="M5.0443 0.869319C2.8353 0.845256 1.02503 2.6165 1.00097 4.82551C0.97691 7.03452 2.74816 8.84478 4.95717 8.86885C7.16617 8.89291 8.97644 7.12166 9.0005 4.91265C9.02456 2.70364 7.25331 0.893381 5.0443 0.869319Z" fill="#999999"/>
</svg>
