<svg width="23" height="27" viewBox="0 0 23 27" fill="none" xmlns="http://www.w3.org/2000/svg">
<g clip-path="url(#clip0_151:62)">
<path d="M12.906 13.1506L15.4189 10.1938L4.99197 3.42052C4.84374 3.32404 4.7001 3.25929 4.56378 3.22266L12.906 13.1506Z" fill="#BCBCBC"/>
<path d="M15.7835 16.575L18.935 14.5279C19.8029 13.9642 19.8029 13.0416 18.935 12.478L15.8769 10.4912L13.2594 13.571L15.7835 16.575Z" fill="#BCBCBC"/>
<path d="M3.91658 3.2937C3.60802 3.48021 3.41406 3.90413 3.41406 4.51236V22.4934C3.41406 23.107 3.61147 23.5335 3.92505 23.7173L12.5504 13.5688L3.91658 3.2937Z" fill="#BCBCBC"/>
<path d="M12.9039 13.9895L4.5849 23.7775C4.71493 23.7398 4.85137 23.6767 4.99192 23.5853L15.3262 16.8723L12.9039 13.9895Z" fill="#BCBCBC"/>
</g>
<defs>
<clipPath id="clip0_151:62">
<rect width="23" height="27" fill="white"/>
</clipPath>
</defs>
</svg>
