<svg width="24" height="24" viewBox="0 0 24 24" fill="none" xmlns="http://www.w3.org/2000/svg">
<path d="M22.1456 3.14505C21.7856 2.83977 21.2202 2.79609 20.6355 3.03081H20.6346C20.0197 3.27753 3.22928 10.4794 2.54576 10.7737C2.42144 10.8169 1.33568 11.222 1.44752 12.1244C1.54736 12.938 2.42 13.275 2.52656 13.3138L6.7952 14.7754C7.0784 15.7182 8.1224 19.1962 8.35328 19.9393C8.49728 20.4025 8.732 21.0111 9.14336 21.1364C9.50432 21.2756 9.86336 21.1484 10.0957 20.966L12.7054 18.5454L16.9184 21.831L17.0187 21.891C17.3048 22.0177 17.5789 22.081 17.8405 22.081C18.0426 22.081 18.2365 22.0431 18.4218 21.9673C19.053 21.7081 19.3054 21.1066 19.3318 21.0385L22.4787 4.68153C22.6707 3.80793 22.4038 3.36345 22.1456 3.14505ZM10.5598 15.3601L9.11984 19.2001L7.67984 14.4001L18.7198 6.24009L10.5598 15.3601Z" fill="#687F87"/>
</svg>
