<svg width="149" height="149" viewBox="0 0 149 149" fill="none" xmlns="http://www.w3.org/2000/svg">
<rect width="135" height="135" transform="translate(0.314453 14.4258) rotate(-6)" fill="#1A8BD8"/>
<path d="M88.415 45.1266C87.7651 44.6833 86.8203 44.7094 85.8921 45.2003L85.8905 45.2005C84.9143 45.7165 58.3383 60.5791 57.2566 61.1859C57.0581 61.2792 55.3289 62.1398 55.6715 63.6161C55.9788 64.9473 57.4839 65.3538 57.6673 65.3996L64.9974 67.0786C65.631 68.5919 67.9674 74.1751 68.4796 75.3665C68.7989 76.1091 69.294 77.0771 69.9977 77.2131C70.6202 77.3809 71.1932 77.1075 71.5465 76.7647L75.4506 72.2978L83.0061 77.0098L83.1828 77.0918C83.6791 77.252 84.1444 77.3093 84.5781 77.2637C84.913 77.2285 85.2278 77.1319 85.5217 76.9739C86.5228 76.4343 86.8365 75.3934 86.8684 75.2758L89.2349 47.6153C89.4009 46.1338 88.8811 45.4436 88.415 45.1266ZM71.3392 67.3919L69.6214 74.0077L66.3983 66.3024L83.2759 50.8535L71.3392 67.3919Z" fill="white"/>
<path d="M46.0154 108.665L45.0152 99.1493L41.7373 99.4939L41.55 97.7117L49.9835 96.8253L50.1708 98.6075L46.877 98.9537L47.8771 108.469L46.0154 108.665ZM54.7447 107.908C53.5566 108.033 52.5399 107.749 51.6948 107.054C50.8485 106.35 50.3623 105.398 50.2363 104.199C50.1103 103.001 50.3832 101.974 51.055 101.121C51.7257 100.257 52.671 99.7604 53.891 99.6322C55.1215 99.5029 56.1585 99.8283 57.002 100.608C57.8444 101.378 58.2934 102.435 58.349 103.781L52.0159 104.447C52.1018 105.06 52.3893 105.55 52.8783 105.916C53.3673 106.283 53.9566 106.431 54.6461 106.358C55.6221 106.256 56.2514 105.814 56.534 105.034L58.3639 104.841C58.2013 105.641 57.8015 106.327 57.1643 106.898C56.5272 107.469 55.7207 107.806 54.7447 107.908ZM53.9971 101.101C53.4242 101.161 52.9482 101.378 52.5691 101.75C52.1994 102.111 51.9875 102.594 51.9332 103.2L56.3409 102.737C56.149 102.135 55.8406 101.701 55.4157 101.435C54.9898 101.158 54.5169 101.047 53.9971 101.101ZM60.5195 107.14L59.2651 95.2062L61.0155 95.0222L62.2698 106.957L60.5195 107.14ZM68.1552 106.499C66.9671 106.624 65.9504 106.339 65.1053 105.645C64.259 104.94 63.7728 103.988 63.6468 102.79C63.5208 101.591 63.7937 100.565 64.4655 99.7113C65.1362 98.8471 66.0815 98.3509 67.3015 98.2227C68.532 98.0934 69.569 98.4188 70.4125 99.1989C71.2549 99.9684 71.7039 101.026 71.7595 102.371L65.4264 103.037C65.5123 103.65 65.7998 104.14 66.2888 104.507C66.7778 104.874 67.3671 105.021 68.0566 104.949C69.0326 104.846 69.6619 104.405 69.9445 103.624L71.7744 103.432C71.6119 104.232 71.212 104.917 70.5749 105.488C69.9377 106.059 69.1312 106.396 68.1552 106.499ZM67.4076 99.6917C66.8347 99.7519 66.3587 99.9682 65.9796 100.34C65.6099 100.701 65.398 101.185 65.3437 101.791L69.7514 101.328C69.5595 100.726 69.2511 100.292 68.8262 100.025C68.4003 99.7482 67.9274 99.637 67.4076 99.6917ZM77.8924 108.838C76.8104 108.952 75.8914 108.78 75.1355 108.323C74.3902 107.865 73.92 107.218 73.7247 106.38L75.4432 106.199C75.8467 107.079 76.6267 107.459 77.783 107.337C78.4088 107.271 78.9016 107.01 79.2612 106.554C79.6326 106.108 79.7792 105.513 79.7012 104.77L79.6025 103.832C79.3858 104.219 79.0617 104.553 78.63 104.835C78.1984 105.116 77.7174 105.285 77.187 105.34C76.1156 105.453 75.1679 105.161 74.3439 104.465C73.5294 103.757 73.0625 102.835 72.9432 101.7C72.825 100.576 73.0912 99.5877 73.7418 98.7363C74.4019 97.8733 75.2676 97.3854 76.3391 97.2728C76.8695 97.2171 77.375 97.2819 77.8557 97.4674C78.3353 97.6422 78.7213 97.8966 79.0138 98.2305L78.9018 97.1644L80.6521 96.9804L81.4365 104.443C81.5747 105.759 81.3024 106.79 80.6195 107.538C79.9471 108.284 79.0381 108.717 77.8924 108.838ZM75.5777 103.193C76.0818 103.601 76.668 103.77 77.3363 103.7C78.0046 103.63 78.5429 103.342 78.9511 102.838C79.3582 102.324 79.525 101.716 79.4514 101.016C79.3778 100.316 79.0889 99.7617 78.5848 99.3535C78.0796 98.9347 77.4929 98.7604 76.8245 98.8306C76.1562 98.9009 75.6185 99.1933 75.2114 99.708C74.8032 100.212 74.6359 100.814 74.7095 101.514C74.7831 102.215 75.0725 102.774 75.5777 103.193ZM83.8441 104.689L83.0079 96.7328L84.7582 96.5488L84.9071 97.965C85.0088 97.5039 85.2414 97.1147 85.6049 96.7977C85.979 96.4795 86.3942 96.2964 86.8503 96.2485C87.1261 96.2195 87.3564 96.2167 87.5412 96.2402L87.7302 98.0383C87.4656 97.9696 87.1688 97.9525 86.84 97.9871C86.3096 98.0428 85.8816 98.3077 85.556 98.7817C85.2293 99.245 85.1061 99.8586 85.1864 100.622L85.5945 104.505L83.8441 104.689ZM92.9035 103.898C91.8215 104.011 90.8668 103.704 90.0395 102.976C89.2228 102.247 88.7542 101.309 88.6338 100.164C88.5134 99.0178 88.7768 98.0034 89.424 97.1202C90.0819 96.236 90.9518 95.737 92.0338 95.6232C92.5749 95.5664 93.0863 95.636 93.5681 95.832C94.0488 96.0174 94.4289 96.2671 94.7086 96.5809L94.5966 95.5148L96.3469 95.3308L97.1831 103.287L95.4328 103.471L95.3207 102.405C95.1124 102.77 94.793 103.098 94.3625 103.39C93.9309 103.672 93.4445 103.841 92.9035 103.898ZM91.275 101.72C91.7718 102.161 92.365 102.345 93.0545 102.273C93.7441 102.201 94.286 101.897 94.6802 101.362C95.0745 100.827 95.2337 100.199 95.1579 99.4778C95.0821 98.7564 94.7957 98.1752 94.2989 97.734C93.8021 97.2929 93.2089 97.1086 92.5193 97.181C91.8298 97.2535 91.2879 97.5571 90.8937 98.0919C90.4994 98.6268 90.3402 99.2548 90.416 99.9762C90.4918 100.698 90.7781 101.279 91.275 101.72ZM109.691 101.972L109.221 97.501C109.153 96.8539 108.978 96.3628 108.696 96.0278C108.425 95.6917 108.055 95.5481 107.589 95.5972C107.026 95.6563 106.598 95.9211 106.305 96.3917C106.011 96.8624 105.895 97.4913 105.956 98.2785L106.381 102.32L104.63 102.504L104.161 98.0329C104.093 97.3858 103.918 96.8947 103.636 96.5596C103.364 96.2235 102.995 96.08 102.529 96.129C101.945 96.1903 101.502 96.4675 101.2 96.9604C100.909 97.4523 100.806 98.1119 100.893 98.9393L101.305 102.854L99.5544 103.038L98.7182 95.0816L100.469 94.8976L100.582 95.9796C100.983 95.1009 101.693 94.608 102.711 94.501C103.91 94.375 104.787 94.8137 105.343 95.8171C105.514 95.2951 105.813 94.8722 106.24 94.5484C106.677 94.2236 107.172 94.0321 107.724 93.9742C108.615 93.8805 109.347 94.1092 109.92 94.6604C110.492 95.2115 110.833 96.0016 110.941 97.0306L111.441 101.788L109.691 101.972Z" fill="white"/>
</svg>
