<svg width="22" height="21" viewBox="0 0 22 21" fill="none" xmlns="http://www.w3.org/2000/svg">
<path d="M21.1458 1.14492C20.7858 0.839645 20.2204 0.795965 19.6358 1.03068H19.6348C19.0199 1.2774 2.22953 8.47932 1.54601 8.77356C1.42169 8.81676 0.335926 9.22188 0.447766 10.1243C0.547606 10.9379 1.42025 11.2748 1.52681 11.3137L5.79544 12.7753C6.07865 13.718 7.12265 17.1961 7.35353 17.9392C7.49753 18.4024 7.73224 19.011 8.14361 19.1363C8.50457 19.2755 8.86361 19.1483 9.09593 18.9659L11.7057 16.5452L15.9186 19.8308L16.019 19.8908C16.305 20.0176 16.5791 20.0809 16.8407 20.0809C17.0428 20.0809 17.2367 20.043 17.422 19.9672C18.0532 19.708 18.3057 19.1065 18.3321 19.0384L21.479 2.6814C21.671 1.8078 21.4041 1.36332 21.1458 1.14492ZM9.56009 13.36L8.12009 17.2L6.68009 12.4L17.7201 4.23996L9.56009 13.36Z" fill="#1A8BD8"/>
</svg>
