<svg width="157" height="157" viewBox="0 0 157 157" fill="none" xmlns="http://www.w3.org/2000/svg">
<g filter="url(#filter0_d_337_1212)">
<rect width="135" height="135" transform="translate(4 14.1113) rotate(-6)" fill="#4AA0EB"/>
<path d="M92.9409 48.7536C91.7311 49.4506 90.4078 49.9731 88.995 50.2945C90.3643 49.2658 91.3392 47.7623 91.6933 46.0546C90.4126 47.0084 88.9602 47.7563 87.3812 48.244C85.9464 47.0045 84.0182 46.3384 81.9841 46.5522C78.0776 46.9628 75.244 50.4635 75.6545 54.3687C75.7127 54.9229 75.8332 55.4573 76.0068 55.9606C70.0976 56.284 64.5903 54.0152 60.6503 50.1017C60.1528 51.2104 59.9317 52.4617 60.0681 53.7599C60.326 56.213 61.8013 58.2473 63.8321 59.3155C62.6693 59.4002 61.5445 59.1967 60.5355 58.7678C60.5387 58.7983 60.5416 58.8261 60.5448 58.8566C60.9051 62.2844 63.6428 64.8872 66.9478 65.1954C66.3721 65.4195 65.7553 65.5714 65.1095 65.6393C64.6547 65.6871 64.2057 65.6887 63.7662 65.6531C64.9619 68.3684 67.7893 70.1399 70.8902 69.8716C68.6696 72.0235 65.7387 73.4751 62.4236 73.8236C61.8534 73.8835 61.2863 73.9096 60.7251 73.9015C64.0667 75.5788 67.9066 76.359 71.902 75.9391C84.913 74.5716 90.893 63.046 89.9106 53.6988C89.8784 53.3925 89.8397 53.0882 89.7945 52.786C91.0726 51.6421 92.1418 50.2708 92.9409 48.7536Z" fill="white"/>
<path d="M58.6521 107.41L57.6519 97.8942L54.374 98.2387L54.1867 96.4566L62.6202 95.5702L62.8075 97.3523L59.5137 97.6985L60.5138 107.214L58.6521 107.41ZM70.9841 106.114L68.6936 101.158L67.4993 106.48L65.8445 106.654L62.335 98.9786L64.1808 98.7846L66.4763 104.094L67.7292 98.4117L69.0659 98.2712L71.441 103.572L72.6143 97.8982L74.4761 97.7026L72.639 105.94L70.9841 106.114ZM76.4781 95.7385C76.1599 95.772 75.8724 95.6896 75.6156 95.4913C75.3577 95.2825 75.2114 95.0136 75.1768 94.6848C75.1434 94.3665 75.2317 94.0838 75.4416 93.8365C75.6505 93.5785 75.914 93.4329 76.2323 93.3994C76.5611 93.3649 76.8492 93.4526 77.0965 93.6625C77.3427 93.8619 77.4825 94.1207 77.516 94.4389C77.5505 94.7678 77.4687 95.0606 77.2704 95.3174C77.0711 95.5636 76.807 95.704 76.4781 95.7385ZM76.6215 105.521L75.7852 97.565L77.5356 97.381L78.3718 105.337L76.6215 105.521ZM90.1046 104.184C89.2984 104.269 88.6173 104.116 88.0612 103.724C87.5147 103.32 87.1963 102.688 87.106 101.829L86.7029 97.9941L85.3026 98.1413L85.1387 96.5819L86.539 96.4347L86.3065 94.2229L88.0569 94.0389L88.2894 96.2507L90.5648 96.0116L90.7287 97.571L88.4533 97.8101L88.8262 101.359C88.8775 101.847 89.0198 102.18 89.2532 102.359C89.4865 102.539 89.8366 102.604 90.3033 102.555C90.7065 102.512 91.0144 102.432 91.2271 102.313L91.391 103.872C91.0214 104.029 90.5926 104.133 90.1046 104.184ZM84.1852 104.807C83.379 104.891 82.6979 104.738 82.1418 104.346C81.5953 103.942 81.2769 103.31 81.1866 102.451L80.7835 98.6163L79.1286 98.7902L78.9647 97.2308L80.6196 97.0568L80.3871 94.845L82.1375 94.6611L82.37 96.8729L84.2954 96.6705L84.4593 98.2299L82.5339 98.4323L82.9068 101.981C82.9581 102.469 83.1004 102.802 83.3338 102.982C83.5671 103.161 83.9172 103.226 84.384 103.177C84.7871 103.135 85.095 103.054 85.3077 102.935L85.4716 104.494C85.102 104.651 84.6732 104.755 84.1852 104.807ZM96.4867 103.594C95.2986 103.719 94.282 103.434 93.4368 102.74C92.5905 102.035 92.1043 101.084 91.9783 99.885C91.8523 98.6863 92.1252 97.6602 92.797 96.8066C93.4677 95.9424 94.413 95.4462 95.633 95.318C96.8635 95.1887 97.9006 95.514 98.7441 96.2942C99.5864 97.0636 100.035 98.1212 100.091 99.4667L93.7579 100.132C93.8438 100.745 94.1313 101.235 94.6203 101.602C95.1093 101.969 95.6986 102.116 96.3882 102.044C97.3641 101.941 97.9934 101.5 98.276 100.719L100.106 100.527C99.9434 101.327 99.5435 102.013 98.9064 102.584C98.2692 103.155 97.4627 103.492 96.4867 103.594ZM95.7391 96.787C95.1663 96.8472 94.6903 97.0634 94.3111 97.4358C93.9414 97.7964 93.7295 98.2799 93.6752 98.8862L98.0829 98.4229C97.891 97.821 97.5826 97.3869 97.1577 97.1205C96.7318 96.8435 96.2589 96.7323 95.7391 96.787ZM102.261 102.826L101.425 94.8701L103.176 94.6861L103.324 96.1023C103.426 95.6412 103.659 95.252 104.022 94.935C104.396 94.6168 104.812 94.4337 105.268 94.3858C105.544 94.3568 105.774 94.354 105.959 94.3775L106.148 96.1756C105.883 96.1069 105.586 96.0898 105.257 96.1244C104.727 96.1801 104.299 96.445 103.973 96.919C103.647 97.3823 103.523 97.9959 103.604 98.7597L104.012 102.642L102.261 102.826Z" fill="white"/>
</g>
<defs>
<filter id="filter0_d_337_1212" x="0" y="0" width="156.372" height="156.372" filterUnits="userSpaceOnUse" color-interpolation-filters="sRGB">
<feFlood flood-opacity="0" result="BackgroundImageFix"/>
<feColorMatrix in="SourceAlpha" type="matrix" values="0 0 0 0 0 0 0 0 0 0 0 0 0 0 0 0 0 0 127 0" result="hardAlpha"/>
<feOffset dy="4"/>
<feGaussianBlur stdDeviation="2"/>
<feComposite in2="hardAlpha" operator="out"/>
<feColorMatrix type="matrix" values="0 0 0 0 0 0 0 0 0 0 0 0 0 0 0 0 0 0 0.25 0"/>
<feBlend mode="normal" in2="BackgroundImageFix" result="effect1_dropShadow_337_1212"/>
<feBlend mode="normal" in="SourceGraphic" in2="effect1_dropShadow_337_1212" result="shape"/>
</filter>
</defs>
</svg>
