<svg width="22" height="23" viewBox="0 0 22 23" fill="none" xmlns="http://www.w3.org/2000/svg">
<path d="M14.293 2.78103C13.4569 1.87621 12.289 1.37793 10.9999 1.37793C9.70398 1.37793 8.53222 1.87319 7.69992 2.77242C6.85859 3.68155 6.44867 4.91713 6.54492 6.25132C6.7357 8.88354 8.73418 11.0248 10.9999 11.0248C13.2657 11.0248 15.2607 8.88397 15.4545 6.25218C15.552 4.93004 15.1395 3.69705 14.293 2.78103Z" fill="#828282"/>
<path d="M18.5624 20.6706H3.43744C3.23947 20.6732 3.04341 20.6315 2.86353 20.5486C2.68366 20.4657 2.52448 20.3436 2.3976 20.1913C2.1183 19.8566 2.00572 19.3997 2.08908 18.9376C2.45174 16.9212 3.58353 15.2274 5.36244 14.0384C6.94283 12.9828 8.94474 12.4019 10.9999 12.4019C13.0551 12.4019 15.057 12.9833 16.6374 14.0384C18.4163 15.227 19.5481 16.9208 19.9108 18.9372C19.9942 19.3993 19.8816 19.8562 19.6023 20.1908C19.4754 20.3432 19.3163 20.4654 19.1364 20.5484C18.9565 20.6314 18.7604 20.6731 18.5624 20.6706V20.6706Z" fill="#828282"/>
</svg>
